<svg xmlns="http://www.w3.org/2000/svg" width="19" height="19" viewBox="0 0 19 19">
  <g id="Group_46003" data-name="Group 46003" transform="translate(0.5 0.5)">
    <g id="Group_44231" data-name="Group 44231" transform="translate(0 0)">
      <path id="Path_26379" data-name="Path 26379" d="M16.472,8.919l-4.716,4.7a3.086,3.086,0,0,1-2.2.894,3.285,3.285,0,0,1-2.309-.949,3.172,3.172,0,0,1-.932-2.234,3.108,3.108,0,0,1,.91-2.241l3.689-3.672a1.07,1.07,0,0,1,.895-.3,1.072,1.072,0,0,1,.619,1.823l-3.685,3.67a.977.977,0,0,0-.283.7,1.053,1.053,0,0,0,.3.742,1.125,1.125,0,0,0,.793.323.95.95,0,0,0,.681-.267L14.956,7.4A3.081,3.081,0,0,0,10.6,3.047L3.045,10.6A3.081,3.081,0,0,0,7.2,15.14l.245-.2.283.146a2.625,2.625,0,0,0,1.109.257h.036l.2-.009a.4.4,0,0,1,.3.687l-.455.455a5.226,5.226,0,0,1-7.391-7.39l7.553-7.55a5.226,5.226,0,0,1,7.392,7.388Z" transform="translate(0)" fill="#b7b7b7" stroke="rgba(0,0,0,0)" stroke-width="1"/>
    </g>
  </g>
</svg>
