<svg xmlns="http://www.w3.org/2000/svg" width="16" height="18" viewBox="0 0 16 18">
  <g id="Note" transform="translate(-653.255 -443.893)">
    <path id="Path_8087" data-name="Path 8087" d="M669.009,458.2l-3.444,3.446a.842.842,0,0,1-.6.246h-.21v-3.938a.562.562,0,0,1,.562-.562h3.938v.214A.837.837,0,0,1,669.009,458.2Z" fill="#dadada"/>
    <path id="Path_8777" data-name="Path 8777" d="M668.255,443.893h-14a1,1,0,0,0-1,1v16a1,1,0,0,0,1,1h9.6l0-4.632a.77.77,0,0,1,.77-.77h4.632v-11.6A1,1,0,0,0,668.255,443.893Zm-7.577,8.6H658a.739.739,0,1,1,0-1.477h2.682a.739.739,0,1,1,0,1.477Zm4.161-3.139H658a.739.739,0,1,1,0-1.477h6.843a.739.739,0,1,1,0,1.477Z" fill="#dadada"/>
  </g>
</svg>
