<svg xmlns="http://www.w3.org/2000/svg" width="15.998" height="18" viewBox="0 0 15.998 18">
  <g id="Note_-_Empty" data-name="Note - Empty" transform="translate(0 0)">
    <g id="Icon" transform="translate(-18.592 -89.42)">
      <path id="Path_8086" data-name="Path 8086" d="M29.188,102.788a.77.77,0,0,1,.77-.77H34.59V90.42a1,1,0,0,0-1-1h-14a1,1,0,0,0-1,1v16a1,1,0,0,0,1,1h9.6Z" fill="#dadada"/>
      <path id="Path_8087" data-name="Path 8087" d="M34.344,103.728,30.9,107.174a.848.848,0,0,1-.6.246H30.09v-3.938a.562.562,0,0,1,.562-.562H34.59v.214A.841.841,0,0,1,34.344,103.728Z" fill="#dadada"/>
    </g>
  </g>
</svg>
