<svg xmlns="http://www.w3.org/2000/svg" width="17" height="17" viewBox="0 0 17 17">
  <path id="Path_29974" data-name="Path 29974" d="M-22.039,713.79a8,8,0,0,0-8,8,8,8,0,0,0,8,8,8,8,0,0,0,8-8A8,8,0,0,0-22.039,713.79Zm-.613,2.606a.613.613,0,0,1,.613-.612.612.612,0,0,1,.612.612v4.068a.613.613,0,0,1-.612.613.613.613,0,0,1-.613-.613Zm.613,10.767a5.385,5.385,0,0,1-5.379-5.378,5.383,5.383,0,0,1,2.772-4.706.612.612,0,0,1,.833.238.612.612,0,0,1-.238.833,4.159,4.159,0,0,0-2.141,3.635,4.158,4.158,0,0,0,4.153,4.152,4.157,4.157,0,0,0,4.152-4.152,4.159,4.159,0,0,0-2.141-3.635.612.612,0,0,1-.238-.833.612.612,0,0,1,.833-.238,5.384,5.384,0,0,1,2.772,4.706A5.384,5.384,0,0,1-22.039,727.163Z" transform="translate(30.539 -713.29)" fill="#b7b7b7" stroke="rgba(0,0,0,0)" stroke-width="1"/>
</svg>
