<svg xmlns="http://www.w3.org/2000/svg" width="14" height="14" viewBox="0 0 14 14">
  <g id="Group_46056" data-name="Group 46056" transform="translate(-3 -3)">
    <path id="Path_10761" data-name="Path 10761" d="M.7,0H13.3c.387,0,.7.224.7.5v2c0,.276-.313.5-.7.5H.7C.313,3,0,2.776,0,2.5V.5C0,.224.313,0,.7,0Z" transform="translate(3 8.5)" fill="#dadada"/>
    <path id="Path_26349" data-name="Path 26349" d="M.7,0H13.3c.387,0,.7.224.7.5v2c0,.276-.313.5-.7.5H.7C.313,3,0,2.776,0,2.5V.5C0,.224.313,0,.7,0Z" transform="translate(8.5 17) rotate(-90)" fill="#dadada"/>
  </g>
</svg>
