<svg xmlns="http://www.w3.org/2000/svg" width="16" height="16" viewBox="0 0 16 16">
  <path id="Path_7313" data-name="Path 7313" d="M-3918.321-2459.288q-.9-.9-1.8-1.8a.573.573,0,0,1-.082-.788,6.446,6.446,0,0,0,1.021-4.349,6.505,6.505,0,0,0-2.174-4.264,6.53,6.53,0,0,0-5.191-1.693,6.5,6.5,0,0,0-4.383,2.276,6.627,6.627,0,0,0-1.634,4.068,6.727,6.727,0,0,0,.829,3.592,6.721,6.721,0,0,0,6.728,3.428,6.416,6.416,0,0,0,2.795-1.031.54.54,0,0,1,.745.081c.523.527,1.049,1.052,1.573,1.577s1.076,1.075,1.612,1.615a1.325,1.325,0,0,0,.529.356h.451a.969.969,0,0,0,.7-.745.95.95,0,0,0-.335-.935Zm-4.215-2.716a4.6,4.6,0,0,1-3.2,1.336l-.127,0a4.58,4.58,0,0,1-3.322-1.338,4.905,4.905,0,0,1-1.511-3.472,4.883,4.883,0,0,1,1.452-3.434,4.776,4.776,0,0,1,3.425-1.426,4.9,4.9,0,0,1,4.8,4.865A4.9,4.9,0,0,1-3922.536-2462Z" transform="translate(3932.577 2472.222)" fill="#dadada"/>
</svg>
