<svg xmlns="http://www.w3.org/2000/svg" width="44" height="19" viewBox="0 0 44 19">
  <path id="Path_80" data-name="Path 80" d="M-524.7-158.085v1.075l-8.3-.261c.143-.448.356-.585.972-.663.823-.1.813-.1.906-.967a2.386,2.386,0,0,1,.208-.767.709.709,0,0,0-.171-.965.588.588,0,0,1-.085-.936,8.213,8.213,0,0,1,.752-.894.6.6,0,0,1,.952.014c.09.095.235.235.326.216.471-.1.65.261.916.509a2.6,2.6,0,0,0,.654.468.705.705,0,0,0,.89-.232c.244-.306.111-.593-.117-.848a2.964,2.964,0,0,1-.375-.388c-.1-.166-.242-.42-.18-.543a1.248,1.248,0,0,1,.539-.444,3.9,3.9,0,0,1,.6-.182c.616-.211,1.229-.43,1.928-.675a3.217,3.217,0,0,0-.246-.506c-.271-.4-.278-.607.11-.867a1.7,1.7,0,0,0,.876-1.132c.024-.137.33-.294.519-.312.147-.014.308.185.475.264a.887.887,0,0,0,.4.107,3.361,3.361,0,0,0,.651-.111,1.556,1.556,0,0,0,.41-.165,1.246,1.246,0,0,1,1.641.194,5.4,5.4,0,0,0,.526.491.459.459,0,0,0,.776-.175c.093-.171.15-.361.251-.528a.519.519,0,0,1,.937.013.678.678,0,0,0,.768.522,1.082,1.082,0,0,0,1.014-.628c.089-.205.13-.431.215-.638a2.2,2.2,0,0,1,.3-.6c.381-.455.7-.4.895.158a.652.652,0,0,0,.849.513,1.059,1.059,0,0,1,.357-.017c.617.082.724.013.848-.592.036-.176.055-.356.074-.535a1.024,1.024,0,0,1,.961-.995,1.036,1.036,0,0,0,.867-.6,1.643,1.643,0,0,1,.62-.58c.4-.21.335-.5.214-.8a.855.855,0,0,1,.12-1.037,2.53,2.53,0,0,1,.472-.288c.093.17.2.337.275.513a1.181,1.181,0,0,1,.023.33c.415-.23.78-.457,1.168-.638a5.053,5.053,0,0,1,1.154-.428c.652-.123.756-.229.634-.9-.06-.324-.109-.65-.152-.977a3.291,3.291,0,0,1,0-.413,1.578,1.578,0,0,1,1.379.192,1.047,1.047,0,0,0,.532.2c.459-.071.605.205.675.54a1.685,1.685,0,0,0,1.707,1.487,1.916,1.916,0,0,1,1.374.783.5.5,0,0,0,.807.1,1.444,1.444,0,0,1,1.8-.113,1.406,1.406,0,0,0,1.95-.231,3.306,3.306,0,0,1,.775-.437c-.042.3-.052.448-.081.589-.1.465.054.709.535.773.252.033.511.013.767.023.351.014.525.231.415.538-.283.793.054,1.575,0,2.361a.636.636,0,0,0,.171.45,8.756,8.756,0,0,1,1.534,2.473,1.434,1.434,0,0,0,.973.792,1.272,1.272,0,0,1,.97.8c-.238.169-.488.331-.718.517-.466.373-.918.762-1.382,1.137a1.58,1.58,0,0,1-.48.322,4.284,4.284,0,0,0-2.32,2.271c-.294.5-.522.978-1.169,1.042a.139.139,0,0,0-.042.014,13.881,13.881,0,0,1-2.737,1.389c-.224.065-.4.305-.535.416C-507.164-157.691-515.894-157.887-524.7-158.085Z" transform="translate(533 176.01)" fill="#dadada"/>
</svg>
